<svg t="1741680673058" class="icon" viewBox="0 0 1024 1024" version="1.1" xmlns="http://www.w3.org/2000/svg" p-id="5556" width="200" height="200"><path d="M820 470V190c0-15.464-12.536-28-28-28H540v308h28c30.928 0 56 25.072 56 56v336c0 30.928-25.072 56-56 56H456c-30.928 0-56-25.072-56-56V526c0-30.928 25.072-56 56-56h28V162H232c-15.464 0-28 12.536-28 28v280h28c30.928 0 56 25.072 56 56v336c0 30.928-25.072 56-56 56H120c-30.928 0-56-25.072-56-56V526c0-30.928 25.072-56 56-56h28V190c0-46.392 37.608-84 84-84h560c46.392 0 84 37.608 84 84v280h28c30.928 0 56 25.072 56 56v336c0 30.928-25.072 56-56 56H792c-30.928 0-56-25.072-56-56V526c0-30.928 25.072-56 56-56h28z m-700 56v336h112V526H120z m336 0v336h112V526H456z m336 0v336h112V526H792z" fill="#848C99" p-id="5557"></path></svg>