<svg t="1741680419813" class="icon" viewBox="0 0 1024 1024" version="1.1" xmlns="http://www.w3.org/2000/svg" p-id="1197" width="200" height="200"><path d="M150.068966 741.517241a26.482759 26.482759 0 0 1 0-52.965517H229.517241V397.241379C229.517241 236.349793 359.936 105.931034 520.827586 105.931034S812.137931 236.349793 812.137931 397.241379V688.551724h61.793103a26.482759 26.482759 0 0 1 0 52.965517h-723.862068z m370.75862-582.620689C389.190621 158.896552 282.482759 265.604414 282.482759 397.241379V688.551724h476.689655V397.241379c0-129.800828-103.759448-235.378759-232.871724-238.291862L520.827586 158.896552zM512 918.068966a70.62069 70.62069 0 1 0 0-141.24138 70.62069 70.62069 0 0 0 0 141.24138z" fill="#000000" p-id="1198"></path></svg>