<svg t="1741680591466" class="icon" viewBox="0 0 1024 1024" version="1.1" xmlns="http://www.w3.org/2000/svg" p-id="4316" width="200" height="200"><path d="M487.905882 18.492235L96.677647 244.374588a48.188235 48.188235 0 0 0-24.094118 41.743059v451.764706a48.188235 48.188235 0 0 0 24.094118 41.743059l391.228235 225.882353a48.188235 48.188235 0 0 0 48.188236 0l391.228235-225.882353a48.188235 48.188235 0 0 0 24.094118-41.743059v-451.764706a48.188235 48.188235 0 0 0-24.094118-41.743059L536.094118 18.492235a48.188235 48.188235 0 0 0-48.188236 0z m24.094118 97.340236l343.04 198.053647v396.167529L512 908.107294l-343.100235-198.053647V313.886118L512 115.832471z" fill="#2c2c2c" p-id="4317"></path><path d="M764.687059 367.616a48.188235 48.188235 0 0 1-12.468706 62.102588l-5.481412 3.614118L560.188235 540.009412v196.005647a48.188235 48.188235 0 0 1-96.015059 6.023529l-0.361411-6.023529V539.949176l-186.548706-106.61647A48.188235 48.188235 0 0 1 319.247059 346.895059l5.903059 2.831059L512 456.583529l186.910118-106.857411a48.188235 48.188235 0 0 1 65.776941 17.950117z" fill="#2c2c2c" p-id="4318"></path></svg>