<svg t="1741680329292" class="icon" viewBox="0 0 1024 1024" version="1.1" xmlns="http://www.w3.org/2000/svg" p-id="1029" width="200" height="200"><path d="M512 17.655172a105.931034 105.931034 0 0 1 105.754483 99.734069 105.931034 105.931034 0 0 1 183.137103 105.736828 105.931034 105.931034 0 0 1 105.719173 183.172414 105.931034 105.931034 0 0 1 0 211.473655 105.931034 105.931034 0 0 1-105.736828 183.137103 105.931034 105.931034 0 0 1-183.172414 105.719173 105.931034 105.931034 0 0 1-211.473655 0 105.931034 105.931034 0 0 1-183.137103-105.736828 105.931034 105.931034 0 0 1-105.719173-183.172414 105.931034 105.931034 0 0 1 0-211.473655 105.931034 105.931034 0 0 1 105.736828-183.137103 105.931034 105.931034 0 0 1 183.172414-105.719173A105.878069 105.878069 0 0 1 512 17.655172z m0 52.965518a52.912552 52.912552 0 0 0-52.841931 49.787586l-0.370759 6.797241c-32.485517 4.449103-63.682207 12.905931-93.078069 24.876138l-3.707586-5.614345a52.965517 52.965517 0 0 0-91.577379 52.824276l3.072 6.126345a390.726621 390.726621 0 0 0-68.078345 68.06069l-6.091034-3.054345a52.965517 52.965517 0 0 0-52.877242 91.542069l5.649655 3.707586a385.730207 385.730207 0 0 0-24.893793 93.078069l-6.761931 0.370759a52.965517 52.965517 0 0 0-0.03531 105.719172l6.797241 0.370759c4.449103 32.485517 12.905931 63.682207 24.876138 93.078069l-5.614345 3.707586a52.965517 52.965517 0 0 0 52.824276 91.577379l6.126345-3.072a390.726621 390.726621 0 0 0 68.06069 68.078345l-3.054345 6.091034a52.965517 52.965517 0 0 0 91.542069 52.877242l3.707586-5.649655a385.730207 385.730207 0 0 0 93.078069 24.893793l0.370759 6.761931a52.965517 52.965517 0 0 0 105.719172 0.03531l0.370759-6.797241a385.730207 385.730207 0 0 0 93.078069-24.876138l3.707586 5.614345a52.965517 52.965517 0 0 0 91.577379-52.824276l-3.072-6.126345a390.726621 390.726621 0 0 0 68.078345-68.06069l6.091034 3.054345a52.965517 52.965517 0 0 0 52.877242-91.542069l-5.649655-3.707586a385.730207 385.730207 0 0 0 24.893793-93.078069l6.761931-0.370759a52.965517 52.965517 0 0 0 0.03531-105.719172l-6.797241-0.370759a385.730207 385.730207 0 0 0-24.876138-93.078069l5.614345-3.707586a52.965517 52.965517 0 0 0-52.824276-91.577379l-6.126345 3.072a390.726621 390.726621 0 0 0-68.06069-68.078345l3.054345-6.091034a52.965517 52.965517 0 0 0-91.542069-52.877242l-3.707586 5.649655a385.730207 385.730207 0 0 0-93.078069-24.893793l-0.370759-6.761931A52.965517 52.965517 0 0 0 512 70.62069z m125.245793 213.927724a26.482759 26.482759 0 0 1 9.69269 36.193103l-238.344828 412.813242a26.482759 26.482759 0 1 1-45.868138-26.482759l238.344828-412.830897a26.482759 26.482759 0 0 1 36.175448-9.692689zM688.551724 512a105.931034 105.931034 0 0 1 105.931035 105.931034v17.655173a105.931034 105.931034 0 1 1-211.862069 0v-17.655173a105.931034 105.931034 0 0 1 105.931034-105.931034z m0 52.965517a52.965517 52.965517 0 0 0-52.965517 52.965517v17.655173a52.965517 52.965517 0 0 0 105.931034 0v-17.655173a52.965517 52.965517 0 0 0-52.965517-52.965517zM335.448276 300.137931a105.931034 105.931034 0 0 1 105.931034 105.931035v17.655172a105.931034 105.931034 0 1 1-211.862069 0v-17.655172a105.931034 105.931034 0 0 1 105.931035-105.931035z m0 52.965517a52.965517 52.965517 0 0 0-52.965517 52.965518v17.655172a52.965517 52.965517 0 0 0 105.931034 0v-17.655172a52.965517 52.965517 0 0 0-52.965517-52.965518z" fill="#000000" p-id="1030"></path></svg>